<svg xmlns="http://www.w3.org/2000/svg" viewBox="0 0 382.37 149.91"><defs><style>.cls-1{fill:#FFFFFF;}.cls-2{fill:#3ea6de;}</style></defs><g id="Layer_2" data-name="Layer 2"><g id="Layer_1-2" data-name="Layer 1"><rect class="cls-1" x="136.38" y="125.66" width="97.53" height="24.24"/><path class="cls-1" d="M233.9,26.11V149.9H209.66V29.7H136.38v-.41A24.24,24.24,0,0,1,160.61,5.46h52.64A20.66,20.66,0,0,1,233.9,26.11Z"/><path class="cls-1" d="M0,125.66H358.13a24.24,24.24,0,0,1,24.24,24.24v0a0,0,0,0,1,0,0H0a0,0,0,0,1,0,0V125.66A0,0,0,0,1,0,125.66Z"/><path class="cls-2" d="M116.44,76.62v8.64H24.24v64.65H0V32A26.58,26.58,0,0,1,26.58,5.46H58.22l3.83,12.23-3.83,12h-34V61h76.6A15.59,15.59,0,0,1,116.44,76.62Z"/><path class="cls-1" d="M116.44,76.62v73.29H92.2V61h8.64A15.59,15.59,0,0,1,116.44,76.62Z"/><path class="cls-2" d="M233.9,125.66V149.9H136.37V29.71c0-.14,0-.28,0-.42A24.24,24.24,0,0,1,160.61,5.46v120.2Z"/><path class="cls-2" d="M375.41,21.58,325.52,84.5v65.41H301.27V86.14l-52-65.62L257.52,14a13.68,13.68,0,0,1,19.21,2.22l36,45.43,35.55-44.83a13.07,13.07,0,0,1,18.37-2.12Z"/><polygon class="cls-2" points="317.72 64.37 313.32 64.37 315.52 61.6 317.72 64.37"/><polygon class="cls-2" points="317.72 64.37 313.32 64.37 315.52 61.6 317.72 64.37"/><rect class="cls-2" x="42.61" y="136.24" width="25.75" height="3.58"/><rect class="cls-2" x="91.33" y="136.24" width="25.75" height="3.58"/><rect class="cls-2" x="254.74" y="136.24" width="25.75" height="3.58"/><rect class="cls-2" x="340.93" y="136.24" width="25.75" height="3.58"/><path class="cls-2" d="M66.94,21.05V14.64l43.7-2c3.16-.14,5.8,2,5.8,4.72h0c0,2.66-2.56,4.8-5.67,4.72Z"/><path class="cls-2" d="M94.74,13.78l-8,.49L81.68.38,87.81,0a2.89,2.89,0,0,1,2.71,2.19Z"/><path class="cls-2" d="M82.06,34.86l6.13.38a2.91,2.91,0,0,0,2.72-2.19L95.12,21.4l-8-.49Z"/><path class="cls-2" d="M73.56,17.21l-6.62.48L62.84,5.38l4.55-.33c1.25-.09,2.42.91,3,2.55Z"/><path class="cls-2" d="M62.84,30.47l4.55.34c1.25.09,2.42-.92,3-2.56l3.2-9.6-6.62-.48Z"/></g></g></svg>